<?xml version="1.0" standalone="no"?><svg xmlns="http://www.w3.org/2000/svg" viewBox="0 0 1440 320"><path fill="#d62020" fill-opacity="1" d="M0,192L30,181.3C60,171,120,149,180,144C240,139,300,149,360,170.7C420,192,480,224,540,208C600,192,660,128,720,90.7C780,53,840,43,900,37.3C960,32,1020,32,1080,74.7C1140,117,1200,203,1260,229.3C1320,256,1380,224,1410,208L1440,192L1440,320L1410,320C1380,320,1320,320,1260,320C1200,320,1140,320,1080,320C1020,320,960,320,900,320C840,320,780,320,720,320C660,320,600,320,540,320C480,320,420,320,360,320C300,320,240,320,180,320C120,320,60,320,30,320L0,320Z"></path></svg>